<?xml version="1.0" standalone="no"?>
<!DOCTYPE svg PUBLIC "-//W3C//DTD SVG 20010904//EN"
 "http://www.w3.org/TR/2001/REC-SVG-20010904/DTD/svg10.dtd">
<svg version="1.0" xmlns="http://www.w3.org/2000/svg"
 width="1160.000000pt" height="1160.000000pt" viewBox="0 0 1160.000000 1160.000000"
 preserveAspectRatio="xMidYMid meet">
<metadata>
Created by potrace 1.11, written by Peter Selinger 2001-2013
</metadata>
<g transform="translate(0.000000,1160.000000) scale(0.100000,-0.100000)"
fill="#000000" stroke="none">
<path d="M5455 9936 c-181 -94 -433 -225 -560 -290 -126 -65 -279 -145 -340
-176 -60 -32 -317 -165 -570 -295 -253 -131 -518 -268 -590 -305 -71 -37 -332
-172 -580 -300 -247 -128 -495 -256 -550 -285 -55 -28 -341 -176 -636 -328
l-535 -277 -547 0 -547 0 0 -1880 0 -1880 537 0 536 0 391 -201 c215 -111 436
-225 491 -254 55 -29 307 -159 560 -290 253 -131 514 -266 580 -300 66 -34
318 -165 560 -290 242 -125 503 -260 580 -300 77 -40 268 -139 425 -220 345
-178 587 -304 820 -425 96 -50 207 -107 246 -127 l71 -36 529 273 c291 150
574 296 629 325 55 29 303 157 550 285 248 128 509 263 580 300 72 37 333 172
580 300 248 128 509 263 580 300 72 37 333 172 580 300 248 128 505 261 571
296 l122 64 541 0 541 0 0 1880 0 1880 -549 0 c-520 0 -552 1 -583 19 -18 10
-249 130 -513 266 -264 136 -534 276 -600 310 -66 35 -327 170 -580 300 -253
131 -518 268 -590 305 -71 37 -398 206 -725 375 -327 169 -662 342 -745 385
-567 295 -910 470 -919 469 -6 -1 -159 -78 -341 -173z m854 -162 c273 -141
550 -285 616 -319 115 -60 526 -273 875 -452 91 -47 219 -114 285 -148 66 -35
392 -203 725 -375 333 -172 659 -341 725 -375 66 -34 257 -133 425 -220 168
-87 355 -184 417 -216 l111 -59 521 0 521 0 -2 -1807 -3 -1808 -515 -5 -515
-5 -185 -96 c-102 -53 -446 -232 -765 -397 -319 -164 -841 -434 -1160 -599
-319 -165 -778 -403 -1020 -528 -242 -125 -503 -260 -580 -300 -501 -261 -978
-505 -987 -505 -8 0 -970 493 -1423 730 -60 32 -317 165 -570 295 -253 131
-514 266 -580 300 -66 35 -327 170 -580 300 -489 253 -521 269 -1140 592
l-400 208 -515 5 -515 5 -3 1808 -2 1807 519 0 520 0 103 54 c57 29 245 127
418 216 173 89 369 191 435 225 66 34 392 203 725 375 333 172 655 338 715
370 61 31 193 100 295 153 102 52 307 158 455 235 149 76 360 186 470 243 110
57 394 203 630 326 237 122 436 223 444 223 7 0 237 -115 510 -256z"/>
<path d="M5465 9286 c-181 -94 -422 -219 -535 -277 -113 -59 -468 -243 -790
-409 -322 -167 -769 -398 -995 -515 -225 -117 -504 -261 -620 -320 -115 -59
-213 -111 -217 -114 -4 -3 1566 -5 3489 -3 1923 1 3494 4 3492 6 -5 5 -757
395 -2414 1251 -242 125 -498 257 -570 295 -370 192 -502 260 -506 259 -2 -1
-152 -78 -334 -173z"/>
<path d="M560 5805 l0 -1325 630 0 630 0 2 752 3 752 259 -364 c143 -201 265
-371 271 -378 9 -10 68 67 276 362 145 206 267 375 272 376 4 0 7 -337 7 -750
l0 -750 630 0 630 0 -2 1323 -3 1322 -620 3 -621 2 -278 -450 c-153 -247 -281
-450 -284 -450 -4 1 -131 202 -282 448 l-275 447 -622 3 -623 2 0 -1325z"/>
<path d="M4340 5805 l0 -1325 1275 0 1275 0 -2 303 -3 302 -645 5 c-355 3
-644 8 -642 13 1 4 2 95 2 202 l0 195 645 0 645 0 0 305 0 305 -645 0 -644 0
-3 201 c-2 110 -1 203 1 205 2 2 294 4 648 4 l643 0 0 305 0 305 -1275 0
-1275 0 0 -1325z"/>
<path d="M7060 6825 l0 -305 323 -2 322 -3 3 -1017 2 -1018 625 0 625 0 2
1018 3 1017 323 3 322 2 0 305 0 305 -1275 0 -1275 0 0 -305z"/>
<path d="M9780 5805 l0 -1325 630 0 630 0 0 1325 0 1325 -630 0 -630 0 0
-1325z"/>
<path d="M2335 3922 c39 -21 158 -84 265 -139 107 -55 402 -207 655 -338 253
-130 510 -263 570 -295 61 -32 322 -167 580 -300 259 -133 520 -268 580 -300
384 -200 800 -413 810 -413 10 0 308 152 830 423 72 37 398 206 725 375 327
169 645 333 705 365 61 32 340 176 620 321 281 144 542 280 580 301 l70 38
-3530 0 -3530 0 70 -38z"/>
</g>
</svg>
