<svg id="icon-task-1" xmlns="http://www.w3.org/2000/svg" xmlns:xlink="http://www.w3.org/1999/xlink" width="61.5" height="54.55" viewBox="0 0 61.5 54.55">
  <defs>
    <clipPath id="clip-path">
      <rect id="Прямоугольник_20" data-name="Прямоугольник 20" width="61.5" height="54.55" transform="translate(0 0)" fill="none"/>
    </clipPath>
  </defs>
  <g id="Сгруппировать_49" data-name="Сгруппировать 49" clip-path="url(#clip-path)">
    <path id="Контур_130" data-name="Контур 130" d="M60,15.5h1a.5.5,0,0,0,0-1H60a.5.5,0,0,0,0,1" fill="#263238"/>
    <path id="Контур_131" data-name="Контур 131" d="M50.5,15.5H58a.5.5,0,0,0,0-1H50.5a.5.5,0,0,0,0,1" fill="#263238"/>
    <path id="Контур_132" data-name="Контур 132" d="M60.6,22.518a.5.5,0,0,0,.191-.962l-.923-.383a.5.5,0,1,0-.383.924l.924.383a.5.5,0,0,0,.191.038" fill="#263238"/>
    <path id="Контур_133" data-name="Контур 133" d="M57.829,21.37a.5.5,0,0,0,.191-.962l-6.928-2.87a.5.5,0,1,0-.383.924l6.929,2.87a.5.5,0,0,0,.191.038" fill="#263238"/>
    <path id="Контур_134" data-name="Контур 134" d="M59.676,8.864a.493.493,0,0,0,.191-.038l.924-.382a.5.5,0,0,0-.382-.924l-.923.382a.5.5,0,0,0,.19.962" fill="#263238"/>
    <path id="Контур_135" data-name="Контур 135" d="M50.9,12.5a.5.5,0,0,0,.191-.038l6.929-2.87a.5.5,0,1,0-.383-.924l-6.928,2.87a.5.5,0,0,0,.191.962" fill="#263238"/>
    <path id="Контур_136" data-name="Контур 136" d="M22.25,54.55h30a.5.5,0,0,0,0-1h-30a2,2,0,0,1-2-2v-2a.5.5,0,0,0-1,0v2a3,3,0,0,0,3,3" fill="#263238"/>
    <path id="Контур_137" data-name="Контур 137" d="M27.749,44.5h4.5a1.5,1.5,0,0,0,1.437-1.931l-1.093-3.642V37a.5.5,0,0,0-1,0v2a.5.5,0,0,0,.021.144l1.114,3.712a.5.5,0,0,1-.079.443.491.491,0,0,1-.4.2h-4.5a.5.5,0,1,0,0,1" fill="#263238"/>
    <path id="Контур_138" data-name="Контур 138" d="M23,49H16a2.5,2.5,0,0,1-2.5-2.5v-35A2.5,2.5,0,0,1,16,9h7a2.5,2.5,0,0,1,2.5,2.5v35A2.5,2.5,0,0,1,23,49" fill="#40c4ff"/>
    <path id="Контур_139" data-name="Контур 139" d="M23,49.5H16a3,3,0,0,1-3-3v-35a3,3,0,0,1,3-3h7a3,3,0,0,1,3,3v35a3,3,0,0,1-3,3m-7-40a2,2,0,0,0-2,2v35a2,2,0,0,0,2,2h7a2,2,0,0,0,2-2v-35a2,2,0,0,0-2-2Z" fill="#263238"/>
    <path id="Контур_140" data-name="Контур 140" d="M11.5,43.5h-2A.5.5,0,0,1,9,43V31a.5.5,0,0,1,.5-.5h2a.5.5,0,0,1,0,1H10v11h1.5a.5.5,0,0,1,0,1" fill="#263238"/>
    <path id="Контур_141" data-name="Контур 141" d="M33.5,11.5h-6a.5.5,0,0,1,0-1h6a.5.5,0,0,1,0,1" fill="#263238"/>
    <path id="Контур_142" data-name="Контур 142" d="M1.5,47h7a1,1,0,0,0,1-1V28a1,1,0,0,0-1-1h-7a1,1,0,0,0-1,1V46a1,1,0,0,0,1,1" fill="#ffd740"/>
    <path id="Контур_143" data-name="Контур 143" d="M8.5,47.5h-7A1.5,1.5,0,0,1,0,46V28a1.5,1.5,0,0,1,1.5-1.5h7A1.5,1.5,0,0,1,10,28V46a1.5,1.5,0,0,1-1.5,1.5m-7-20A.5.5,0,0,0,1,28V46a.5.5,0,0,0,.5.5h7A.5.5,0,0,0,9,46V28a.5.5,0,0,0-.5-.5Z" fill="#263238"/>
    <path id="Контур_144" data-name="Контур 144" d="M3.5,43.5A.5.5,0,0,1,3,43V27a.5.5,0,0,1,1,0V43a.5.5,0,0,1-.5.5" fill="#263238"/>
    <path id="Контур_145" data-name="Контур 145" d="M6.5,43.5A.5.5,0,0,1,6,43V27a.5.5,0,0,1,1,0V43a.5.5,0,0,1-.5.5" fill="#263238"/>
    <path id="Контур_146" data-name="Контур 146" d="M19.5,42.5h-6v-3h6a1,1,0,0,1,1,1v1a1,1,0,0,1-1,1" fill="#fff"/>
    <path id="Контур_147" data-name="Контур 147" d="M19.5,43h-6a.5.5,0,0,1-.5-.5v-3a.5.5,0,0,1,.5-.5h6A1.5,1.5,0,0,1,21,40.5v1A1.5,1.5,0,0,1,19.5,43M14,42h5.5a.5.5,0,0,0,.5-.5v-1a.5.5,0,0,0-.5-.5H14Z" fill="#263238"/>
    <path id="Контур_148" data-name="Контур 148" d="M19.5,36.5h-6v-3h6a1,1,0,0,1,1,1v1a1,1,0,0,1-1,1" fill="#fff"/>
    <path id="Контур_149" data-name="Контур 149" d="M19.5,37h-6a.5.5,0,0,1-.5-.5v-3a.5.5,0,0,1,.5-.5h6A1.5,1.5,0,0,1,21,34.5v1A1.5,1.5,0,0,1,19.5,37M14,36h5.5a.5.5,0,0,0,.5-.5v-1a.5.5,0,0,0-.5-.5H14Z" fill="#263238"/>
    <path id="Контур_150" data-name="Контур 150" d="M19.5,24.5h-6v-3h6a1,1,0,0,1,1,1v1a1,1,0,0,1-1,1" fill="#fff"/>
    <path id="Контур_151" data-name="Контур 151" d="M19.5,25h-6a.5.5,0,0,1-.5-.5v-3a.5.5,0,0,1,.5-.5h6A1.5,1.5,0,0,1,21,22.5v1A1.5,1.5,0,0,1,19.5,25M14,24h5.5a.5.5,0,0,0,.5-.5v-1a.5.5,0,0,0-.5-.5H14Z" fill="#263238"/>
    <path id="Контур_152" data-name="Контур 152" d="M19.5,18.5h-6v-3h6a1,1,0,0,1,1,1v1a1,1,0,0,1-1,1" fill="#fff"/>
    <path id="Контур_153" data-name="Контур 153" d="M19.5,19h-6a.5.5,0,0,1-.5-.5v-3a.5.5,0,0,1,.5-.5h6A1.5,1.5,0,0,1,21,16.5v1A1.5,1.5,0,0,1,19.5,19M14,18h5.5a.5.5,0,0,0,.5-.5v-1a.5.5,0,0,0-.5-.5H14Z" fill="#263238"/>
    <path id="Контур_154" data-name="Контур 154" d="M33.5,18.5h-6a.5.5,0,0,1,0-1h6a.5.5,0,0,1,0,1" fill="#263238"/>
    <path id="Контур_155" data-name="Контур 155" d="M37.5,18.5h-4a.5.5,0,0,1,0-1h4A.5.5,0,0,0,38,17V12a.5.5,0,0,0-.5-.5h-4a.5.5,0,0,1,0-1h4A1.5,1.5,0,0,1,39,12v5a1.5,1.5,0,0,1-1.5,1.5" fill="#263238"/>
    <path id="Контур_156" data-name="Контур 156" d="M45.5,16.5h-7A.5.5,0,0,1,38,16V13a.5.5,0,0,1,.5-.5h7A1.5,1.5,0,0,1,47,14v1a1.5,1.5,0,0,1-1.5,1.5m-6.5-1h6.5A.5.5,0,0,0,46,15V14a.5.5,0,0,0-.5-.5H39Z" fill="#263238"/>
    <path id="Контур_157" data-name="Контур 157" d="M11.5,5a.5.5,0,0,1-.5-.5V.5a.5.5,0,0,1,1,0v4a.5.5,0,0,1-.5.5" fill="#263238"/>
    <path id="Контур_158" data-name="Контур 158" d="M13.5,3h-4a.5.5,0,0,1,0-1h4a.5.5,0,0,1,0,1" fill="#263238"/>
    <path id="Контур_159" data-name="Контур 159" d="M4.5,12h0a.5.5,0,0,1-.5-.5v-4a.5.5,0,0,1,1,0v4a.5.5,0,0,1-.5.5" fill="#263238"/>
    <path id="Контур_160" data-name="Контур 160" d="M6.5,10h-4a.5.5,0,0,1,0-1h4a.5.5,0,0,1,0,1" fill="#263238"/>
    <path id="Контур_161" data-name="Контур 161" d="M50.5,34a.5.5,0,0,1-.5-.5v-4a.5.5,0,0,1,1,0v4a.5.5,0,0,1-.5.5" fill="#263238"/>
    <path id="Контур_162" data-name="Контур 162" d="M52.5,32h-4a.5.5,0,0,1,0-1h4a.5.5,0,0,1,0,1" fill="#263238"/>
    <path id="Контур_163" data-name="Контур 163" d="M43.5,41h0a.5.5,0,0,1-.5-.5v-4a.5.5,0,0,1,1,0v4a.5.5,0,0,1-.5.5" fill="#263238"/>
    <path id="Контур_164" data-name="Контур 164" d="M45.5,39h-4a.5.5,0,0,1,0-1h4a.5.5,0,0,1,0,1" fill="#263238"/>
    <path id="Контур_165" data-name="Контур 165" d="M45.5,50.5h-1a.5.5,0,0,1,0-1h1a.5.5,0,0,1,0,1" fill="#263238"/>
    <path id="Контур_166" data-name="Контур 166" d="M42.5,50.5h-12a.5.5,0,0,1,0-1h12a.5.5,0,0,1,0,1" fill="#263238"/>
  </g>
</svg>
