<svg id="icon-task-6" xmlns="http://www.w3.org/2000/svg" xmlns:xlink="http://www.w3.org/1999/xlink" width="64" height="64" viewBox="0 0 64 64">
  <defs>
    <clipPath id="clip-path">
      <rect id="Прямоугольник_14" data-name="Прямоугольник 14" width="64" height="64" fill="none"/>
    </clipPath>
  </defs>
  <g id="Сгруппировать_39" data-name="Сгруппировать 39" clip-path="url(#clip-path)">
    <path id="Контур_27" data-name="Контур 27" d="M7,22H41a2.5,2.5,0,0,1,2.5,2.5v13A2.5,2.5,0,0,1,41,40H24.227L19.094,54.342A2.5,2.5,0,0,1,16.74,56H5.87a1,1,0,0,1-.952-1.3L9.62,40H7a2.5,2.5,0,0,1-2.5-2.5v-13A2.5,2.5,0,0,1,7,22" fill="#40c4ff"/>
    <path id="Контур_28" data-name="Контур 28" d="M7,40.5h.52a.5.5,0,1,0,0-1H7a2,2,0,0,1-2-2v-13a2,2,0,0,1,2-2H41a2,2,0,0,1,2,2v13a2,2,0,0,1-2,2H26.351a.5.5,0,0,0,0,1H41a3,3,0,0,0,3-3v-13a3,3,0,0,0-3-3H7a3,3,0,0,0-3,3v13a3,3,0,0,0,3,3" fill="#263238"/>
    <path id="Контур_29" data-name="Контур 29" d="M22.5,12.5V3a3,3,0,0,1,3-3H37a3,3,0,0,1,3,3v9.5A5.506,5.506,0,0,1,34.5,18H28a5.506,5.506,0,0,1-5.5-5.5M25.5,1a2,2,0,0,0-2,2v9.5A4.505,4.505,0,0,0,28,17h6.5A4.505,4.505,0,0,0,39,12.5V3a2,2,0,0,0-2-2Z" fill="#263238"/>
    <path id="Контур_30" data-name="Контур 30" d="M45.5,34.5H50A1.5,1.5,0,0,0,51.5,33V29A1.5,1.5,0,0,0,50,27.5H45.5a.5.5,0,0,0,0,1H50a.5.5,0,0,1,.5.5v4a.5.5,0,0,1-.5.5H45.5a.5.5,0,0,0,0,1" fill="#263238"/>
    <path id="Контур_31" data-name="Контур 31" d="M1.5,29.5h1a.5.5,0,0,0,0-1h-1A.5.5,0,0,1,1,28V26a.5.5,0,0,1,.5-.5h1a.5.5,0,0,0,0-1h-1A1.5,1.5,0,0,0,0,26v2a1.5,1.5,0,0,0,1.5,1.5" fill="#263238"/>
    <path id="Контур_32" data-name="Контур 32" d="M5.456,57.449l-.43-1.291A.5.5,0,0,1,5.5,55.5h12a.5.5,0,0,1,.416.777l-1.258,1.887a2.993,2.993,0,0,1-2.5,1.336H8.3a3,3,0,0,1-2.846-2.051m.738-.949.21.633A2,2,0,0,0,8.3,58.5h5.86a2,2,0,0,0,1.664-.891l.74-1.109Z" fill="#263238"/>
    <path id="Контур_33" data-name="Контур 33" d="M5.87,56.5H16.74a3.006,3.006,0,0,0,2.824-1.988l5.614-15.686A2.005,2.005,0,0,1,27.061,37.5H41.5a.5.5,0,0,0,0-1H27.061a3.007,3.007,0,0,0-2.825,1.988L18.623,54.174A2.005,2.005,0,0,1,16.74,55.5H5.87a.5.5,0,0,1-.476-.652l7.582-23.7a.5.5,0,1,0-.952-.305l-7.582,23.7A1.5,1.5,0,0,0,5.87,56.5" fill="#263238"/>
    <path id="Контур_34" data-name="Контур 34" d="M29,20.5a.5.5,0,0,0,.5-.5V17.5a.5.5,0,0,0-1,0V20a.5.5,0,0,0,.5.5" fill="#263238"/>
    <path id="Контур_35" data-name="Контур 35" d="M33.5,20.5A.5.5,0,0,0,34,20V17.5a.5.5,0,0,0-1,0V20a.5.5,0,0,0,.5.5" fill="#263238"/>
    <path id="Контур_36" data-name="Контур 36" d="M62.5,31.5h1a.5.5,0,0,0,0-1h-1a.5.5,0,0,0,0,1" fill="#263238"/>
    <path id="Контур_37" data-name="Контур 37" d="M53,31.5h7.5a.5.5,0,0,0,0-1H53a.5.5,0,0,0,0,1" fill="#263238"/>
    <path id="Контур_38" data-name="Контур 38" d="M63.1,38.519a.5.5,0,0,0,.191-.962l-.923-.383a.5.5,0,1,0-.383.924l.924.383a.493.493,0,0,0,.191.038" fill="#263238"/>
    <path id="Контур_39" data-name="Контур 39" d="M60.329,37.371a.5.5,0,0,0,.191-.962l-6.929-2.87a.5.5,0,1,0-.383.924l6.93,2.87a.493.493,0,0,0,.191.038" fill="#263238"/>
    <path id="Контур_40" data-name="Контур 40" d="M62.176,24.864a.492.492,0,0,0,.19-.038l.924-.382a.5.5,0,1,0-.382-.924l-.923.382a.5.5,0,0,0,.191.962" fill="#263238"/>
    <path id="Контур_41" data-name="Контур 41" d="M53.4,28.5a.493.493,0,0,0,.191-.038l6.93-2.87a.5.5,0,1,0-.383-.924l-6.929,2.87a.5.5,0,0,0,.191.962" fill="#263238"/>
    <path id="Контур_42" data-name="Контур 42" d="M7,27V26a1.5,1.5,0,0,1,1.5-1.5h7A1.5,1.5,0,0,1,17,26v1a1.5,1.5,0,0,1-1.5,1.5h-7A1.5,1.5,0,0,1,7,27m1.5-1.5A.5.5,0,0,0,8,26v1a.5.5,0,0,0,.5.5h7A.5.5,0,0,0,16,27V26a.5.5,0,0,0-.5-.5Z" fill="#263238"/>
    <path id="Контур_43" data-name="Контур 43" d="M13.5,64h30a.5.5,0,0,0,0-1h-30a2,2,0,0,1-2-2V59a.5.5,0,0,0-1,0v2a3,3,0,0,0,3,3" fill="#263238"/>
    <path id="Контур_44" data-name="Контур 44" d="M28,17.5h6.5a5,5,0,0,0,5-5v-6H23v6a5,5,0,0,0,5,5" fill="#ffd740"/>
    <path id="Контур_45" data-name="Контур 45" d="M22.5,12.5v-6A.5.5,0,0,1,23,6H39.5a.5.5,0,0,1,.5.5v6A5.506,5.506,0,0,1,34.5,18H28a5.506,5.506,0,0,1-5.5-5.5m1-5.5v5.5A4.505,4.505,0,0,0,28,17h6.5A4.505,4.505,0,0,0,39,12.5V7Z" fill="#263238"/>
    <path id="Контур_46" data-name="Контур 46" d="M23.506,49.5h4.5a1.5,1.5,0,0,0,1.437-1.931l-1.093-3.642V42a.5.5,0,0,0-1,0v2a.5.5,0,0,0,.021.144l1.114,3.712a.5.5,0,0,1-.079.443.491.491,0,0,1-.4.2h-4.5a.5.5,0,1,0,0,1" fill="#263238"/>
    <path id="Контур_47" data-name="Контур 47" d="M28.5,15a.5.5,0,0,0,0-1,2,2,0,0,1-2-2V9.5a.5.5,0,0,0-1,0V12a3,3,0,0,0,3,3" fill="#263238"/>
    <path id="Контур_48" data-name="Контур 48" d="M48.5,34.5A.5.5,0,0,0,49,34V28a.5.5,0,0,0-1,0v6a.5.5,0,0,0,.5.5" fill="#263238"/>
    <path id="Контур_49" data-name="Контур 49" d="M5,7.5A.5.5,0,0,0,5.5,7V3a.5.5,0,0,0-1,0V7a.5.5,0,0,0,.5.5" fill="#263238"/>
    <path id="Контур_50" data-name="Контур 50" d="M3,5.5H7a.5.5,0,0,0,0-1H3a.5.5,0,0,0,0,1" fill="#263238"/>
    <path id="Контур_51" data-name="Контур 51" d="M13,13.5a.5.5,0,0,0,.5-.5V9a.5.5,0,0,0-1,0v4a.5.5,0,0,0,.5.5" fill="#263238"/>
    <path id="Контур_52" data-name="Контур 52" d="M11,11.5h4a.5.5,0,0,0,0-1H11a.5.5,0,0,0,0,1" fill="#263238"/>
  </g>
</svg>
