<svg id="icon-task-5" xmlns="http://www.w3.org/2000/svg" xmlns:xlink="http://www.w3.org/1999/xlink" width="64" height="59" viewBox="0 0 64 59">
  <defs>
    <clipPath id="clip-path">
      <rect id="Прямоугольник_15" data-name="Прямоугольник 15" width="64" height="59" fill="none"/>
    </clipPath>
  </defs>
  <g id="Сгруппировать_41" data-name="Сгруппировать 41" clip-path="url(#clip-path)">
    <path id="Контур_53" data-name="Контур 53" d="M55,59H35a3,3,0,0,1-3-3V44a.5.5,0,0,1,1,0V56a2,2,0,0,0,2,2H55a2,2,0,0,0,2-2V50.6a.5.5,0,0,1,1,0V56a3,3,0,0,1-3,3" fill="#263238"/>
    <path id="Контур_54" data-name="Контур 54" d="M26.5,55A26.5,26.5,0,1,1,53,28.5,26.53,26.53,0,0,1,26.5,55m0-52A25.5,25.5,0,1,0,52,28.5,25.529,25.529,0,0,0,26.5,3" fill="#263238"/>
    <path id="Контур_55" data-name="Контур 55" d="M26.5,45A16.5,16.5,0,1,1,43,28.5,16.519,16.519,0,0,1,26.5,45m0-32A15.5,15.5,0,1,0,42,28.5,15.517,15.517,0,0,0,26.5,13" fill="#263238"/>
    <path id="Контур_56" data-name="Контур 56" d="M26.5,47A18.5,18.5,0,1,1,45,28.5,18.521,18.521,0,0,1,26.5,47m0-36A17.5,17.5,0,1,0,44,28.5,17.521,17.521,0,0,0,26.5,11" fill="#263238"/>
    <path id="Контур_57" data-name="Контур 57" d="M39.668,33.216l-5.336-3.081a8.04,8.04,0,0,0,0-3.27l5.336-3.081a13.971,13.971,0,0,0-2.495-4.333l-5.35,3.089A7.969,7.969,0,0,0,29,20.9V14.735a13.415,13.415,0,0,0-5,0V20.9a7.978,7.978,0,0,0-2.823,1.636l-5.349-3.089a13.954,13.954,0,0,0-2.5,4.333l5.336,3.081a8.04,8.04,0,0,0,0,3.27l-5.336,3.081a13.962,13.962,0,0,0,2.5,4.333l5.349-3.089A7.963,7.963,0,0,0,24,36.1v6.169a13.415,13.415,0,0,0,5,0V36.1a7.954,7.954,0,0,0,2.823-1.636l5.35,3.089a13.96,13.96,0,0,0,2.495-4.333M26.5,32.5a4,4,0,1,1,4-4,4,4,0,0,1-4,4" fill="#ffd740"/>
    <path id="Контур_58" data-name="Контур 58" d="M29,42.765a.5.5,0,0,1-.5-.5V36.1a.5.5,0,0,1,.344-.475,7.423,7.423,0,0,0,2.646-1.534.5.5,0,0,1,.583-.06l5.35,3.089a.5.5,0,0,1-.5.866L31.88,35.07a8.429,8.429,0,0,1-2.38,1.38v5.815a.5.5,0,0,1-.5.5m-5,0a.5.5,0,0,1-.5-.5V36.45a8.429,8.429,0,0,1-2.38-1.38l-5.043,2.912a.5.5,0,1,1-.5-.866l5.35-3.089a.5.5,0,0,1,.583.06,7.423,7.423,0,0,0,2.646,1.534.5.5,0,0,1,.344.475v6.169a.5.5,0,0,1-.5.5m15.668-9.049a.5.5,0,0,1-.25-.067l-5.336-3.081a.5.5,0,0,1-.24-.535,7.516,7.516,0,0,0,0-3.066.5.5,0,0,1,.24-.535l5.336-3.081a.5.5,0,1,1,.5.866l-5.031,2.905a8.459,8.459,0,0,1,0,2.756l5.031,2.905a.5.5,0,0,1-.25.933m-26.336,0a.5.5,0,0,1-.25-.933l5.031-2.905a8.459,8.459,0,0,1,0-2.756l-5.031-2.905a.5.5,0,0,1,.5-.866l5.336,3.081a.5.5,0,0,1,.24.535,7.516,7.516,0,0,0,0,3.066.5.5,0,0,1-.24.535l-5.336,3.081a.5.5,0,0,1-.25.067M26.5,33A4.5,4.5,0,1,1,31,28.5,4.5,4.5,0,0,1,26.5,33m0-8A3.5,3.5,0,1,0,30,28.5,3.5,3.5,0,0,0,26.5,25m5.323-1.96a.5.5,0,0,1-.333-.127,7.438,7.438,0,0,0-2.646-1.534A.5.5,0,0,1,28.5,20.9V14.735a.5.5,0,1,1,1,0v5.816a8.4,8.4,0,0,1,2.38,1.379l5.043-2.912a.5.5,0,0,1,.5.866l-5.35,3.089a.5.5,0,0,1-.25.067m-10.646,0a.5.5,0,0,1-.25-.067l-5.35-3.089a.5.5,0,0,1,.5-.866L21.12,21.93a8.4,8.4,0,0,1,2.38-1.379V14.735a.5.5,0,1,1,1,0V20.9a.5.5,0,0,1-.344.475,7.453,7.453,0,0,0-2.646,1.534.5.5,0,0,1-.333.127" fill="#263238"/>
    <path id="Контур_59" data-name="Контур 59" d="M26.5,5a.5.5,0,0,1-.5-.5v-2a.5.5,0,0,1,1,0v2a.5.5,0,0,1-.5.5" fill="#263238"/>
    <path id="Контур_60" data-name="Контур 60" d="M26.5,55a.5.5,0,0,1-.5-.5v-2a.5.5,0,0,1,1,0v2a.5.5,0,0,1-.5.5" fill="#263238"/>
    <path id="Контур_61" data-name="Контур 61" d="M52.5,29h-2a.5.5,0,0,1,0-1h2a.5.5,0,0,1,0,1" fill="#263238"/>
    <path id="Контур_62" data-name="Контур 62" d="M2.5,29H.5a.5.5,0,0,1,0-1h2a.5.5,0,0,1,0,1" fill="#263238"/>
    <path id="Контур_63" data-name="Контур 63" d="M43.471,12.029a.5.5,0,0,1-.354-.854l1.415-1.414a.5.5,0,1,1,.707.707l-1.414,1.415a.5.5,0,0,1-.354.146" fill="#263238"/>
    <path id="Контур_64" data-name="Контур 64" d="M8.115,47.385a.5.5,0,0,1-.354-.854l1.415-1.414a.5.5,0,0,1,.707.707L8.469,47.239a.5.5,0,0,1-.354.146" fill="#263238"/>
    <path id="Контур_65" data-name="Контур 65" d="M44.885,47.385a.5.5,0,0,1-.354-.146l-1.414-1.415a.5.5,0,0,1,.707-.707l1.415,1.414a.5.5,0,0,1-.354.854" fill="#263238"/>
    <path id="Контур_66" data-name="Контур 66" d="M9.53,12.029a.5.5,0,0,1-.354-.146L7.762,10.468a.5.5,0,1,1,.707-.707l1.415,1.414a.5.5,0,0,1-.354.854" fill="#263238"/>
    <path id="Контур_67" data-name="Контур 67" d="M35.685,6.827a.493.493,0,0,1-.191-.038.5.5,0,0,1-.271-.653l.766-1.849a.5.5,0,0,1,.924.383l-.766,1.848a.5.5,0,0,1-.462.309" fill="#263238"/>
    <path id="Контур_68" data-name="Контур 68" d="M16.55,53.021a.493.493,0,0,1-.191-.038.5.5,0,0,1-.271-.653l.766-1.848a.5.5,0,1,1,.924.383l-.766,1.847a.5.5,0,0,1-.462.309" fill="#263238"/>
    <path id="Контур_69" data-name="Контур 69" d="M50.521,38.95a.493.493,0,0,1-.191-.038l-1.848-.765a.5.5,0,1,1,.383-.924l1.847.765a.5.5,0,0,1-.191.962" fill="#263238"/>
    <path id="Контур_70" data-name="Контур 70" d="M4.327,19.816a.493.493,0,0,1-.191-.038l-1.848-.766a.5.5,0,1,1,.383-.924l1.847.766a.5.5,0,0,1-.191.962" fill="#263238"/>
    <path id="Контур_71" data-name="Контур 71" d="M17.316,6.827a.5.5,0,0,1-.462-.309L16.088,4.67a.5.5,0,0,1,.924-.383l.766,1.849a.5.5,0,0,1-.271.653.493.493,0,0,1-.191.038" fill="#263238"/>
    <path id="Контур_72" data-name="Контур 72" d="M36.45,53.021a.5.5,0,0,1-.462-.309l-.766-1.847a.5.5,0,1,1,.924-.383l.766,1.848a.5.5,0,0,1-.271.653.493.493,0,0,1-.191.038" fill="#263238"/>
    <path id="Контур_73" data-name="Контур 73" d="M48.673,19.816a.5.5,0,0,1-.191-.962l1.847-.766a.5.5,0,1,1,.383.924l-1.848.766a.493.493,0,0,1-.191.038" fill="#263238"/>
    <path id="Контур_74" data-name="Контур 74" d="M2.48,38.95a.5.5,0,0,1-.192-.962l1.847-.765a.5.5,0,1,1,.383.924l-1.847.765a.5.5,0,0,1-.191.038" fill="#263238"/>
    <path id="Контур_75" data-name="Контур 75" d="M60,51.1H55a.5.5,0,0,1-.5-.5v-4a.5.5,0,0,1,.5-.5h5a.5.5,0,0,1,.5.5v4a.5.5,0,0,1-.5.5m-4.5-1h4v-3h-4Z" fill="#263238"/>
    <path id="Контур_76" data-name="Контур 76" d="M63.5,42.1a6,6,0,1,1-6-6,6,6,0,0,1,6,6" fill="#40c4ff"/>
    <path id="Контур_77" data-name="Контур 77" d="M57.5,48.6A6.5,6.5,0,1,1,64,42.1a6.508,6.508,0,0,1-6.5,6.5m0-12A5.5,5.5,0,1,0,63,42.1a5.506,5.506,0,0,0-5.5-5.5" fill="#263238"/>
    <path id="Контур_78" data-name="Контур 78" d="M57.5,42.6a.5.5,0,0,1-.5-.5V38.6a.5.5,0,0,1,1,0v3.5a.5.5,0,0,1-.5.5" fill="#263238"/>
    <path id="Контур_79" data-name="Контур 79" d="M47,4H46a.5.5,0,0,1,0-1h1a.5.5,0,0,1,0,1" fill="#263238"/>
    <path id="Контур_80" data-name="Контур 80" d="M59,4H49a.5.5,0,0,1,0-1H59a.5.5,0,0,1,0,1" fill="#263238"/>
    <path id="Контур_81" data-name="Контур 81" d="M62,1H52a.5.5,0,0,1,0-1H62a.5.5,0,0,1,0,1" fill="#263238"/>
  </g>
</svg>
