<svg id="icon-task-3" xmlns="http://www.w3.org/2000/svg" xmlns:xlink="http://www.w3.org/1999/xlink" width="57" height="57" viewBox="0 0 57 57">
  <defs>
    <clipPath id="clip-path">
      <rect id="Прямоугольник_16" data-name="Прямоугольник 16" width="57" height="57" fill="none"/>
    </clipPath>
  </defs>
  <g id="Сгруппировать_43" data-name="Сгруппировать 43" clip-path="url(#clip-path)">
    <path id="Контур_82" data-name="Контур 82" d="M28.5,11.5a12,12,0,1,0,12,12,12,12,0,0,0-12-12m2,18.706a6.95,6.95,0,0,1-4,0V16.793a6.972,6.972,0,0,1,4,0Z" fill="#ffd740"/>
    <path id="Контур_83" data-name="Контур 83" d="M28.5,36A12.5,12.5,0,1,1,41,23.5,12.514,12.514,0,0,1,28.5,36m0-24A11.5,11.5,0,1,0,40,23.5,11.513,11.513,0,0,0,28.5,12m0,19a7.5,7.5,0,0,1-2.143-.315A.5.5,0,0,1,26,30.207V16.794a.5.5,0,0,1,.356-.479,7.485,7.485,0,0,1,4.287,0,.5.5,0,0,1,.357.479V30.207a.5.5,0,0,1-.357.479A7.513,7.513,0,0,1,28.5,31m2-.794h0ZM27,29.823a6.471,6.471,0,0,0,3,0V17.177a6.471,6.471,0,0,0-3,0Z" fill="#263238"/>
    <path id="Контур_84" data-name="Контур 84" d="M28.5,33A9.5,9.5,0,1,1,38,23.5,9.511,9.511,0,0,1,28.5,33m0-18A8.5,8.5,0,1,0,37,23.5,8.51,8.51,0,0,0,28.5,15" fill="#263238"/>
    <path id="Контур_85" data-name="Контур 85" d="M28.5,9a2,2,0,1,1,2-2,2,2,0,0,1-2,2m0-3a1,1,0,1,0,1,1,1,1,0,0,0-1-1" fill="#263238"/>
    <path id="Контур_86" data-name="Контур 86" d="M32.5,53H27.414a1.49,1.49,0,0,1-1.06-.439l-.916-.915a.5.5,0,0,0-.353-.146H6.035a1.5,1.5,0,0,1-1.249-.669l-2.7-4.054a.5.5,0,0,1,0-.554l2.7-4.055A1.493,1.493,0,0,1,6.035,41.5h19.05a.5.5,0,0,0,.353-.146l.916-.915A1.49,1.49,0,0,1,27.414,40H32.5a.5.5,0,0,1,0,1H27.414a.5.5,0,0,0-.353.146l-.915.915a1.494,1.494,0,0,1-1.061.439H6.035a.5.5,0,0,0-.416.222L3.1,46.5l2.518,3.777a.5.5,0,0,0,.416.223h19.05a1.494,1.494,0,0,1,1.061.439l.915.915a.5.5,0,0,0,.353.146H32.5a.5.5,0,0,1,0,1" fill="#263238"/>
    <path id="Контур_87" data-name="Контур 87" d="M15.536,40.5a.5.5,0,0,1-.309-.107,21.511,21.511,0,1,1,31.562-5.63.5.5,0,0,1-.851-.526,20.494,20.494,0,1,0-30.092,5.369.5.5,0,0,1-.31.894" fill="#263238"/>
    <path id="Контур_88" data-name="Контур 88" d="M19.5,47H5.5a.5.5,0,0,1,0-1h14a.5.5,0,0,1,0,1" fill="#263238"/>
    <path id="Контур_89" data-name="Контур 89" d="M49.5,36.5H37A2.5,2.5,0,0,0,34.5,39V54A2.5,2.5,0,0,0,37,56.5H49.5a5,5,0,0,0,5-5v-10a5,5,0,0,0-5-5m0,15a1,1,0,0,1-1,1h-2a1,1,0,0,1-1-1v-10a1,1,0,0,1,1-1h2a1,1,0,0,1,1,1Z" fill="#ff5252"/>
    <path id="Контур_90" data-name="Контур 90" d="M49.5,57H37a3,3,0,0,1-3-3V39a3,3,0,0,1,3-3H49.5A5.506,5.506,0,0,1,55,41.5v10A5.507,5.507,0,0,1,49.5,57M37,37a2,2,0,0,0-2,2V54a2,2,0,0,0,2,2H49.5A4.505,4.505,0,0,0,54,51.5v-10A4.505,4.505,0,0,0,49.5,37ZM48.5,53h-2A1.5,1.5,0,0,1,45,51.5v-10A1.5,1.5,0,0,1,46.5,40h2A1.5,1.5,0,0,1,50,41.5v10A1.5,1.5,0,0,1,48.5,53m-2-12a.5.5,0,0,0-.5.5v10a.5.5,0,0,0,.5.5h2a.5.5,0,0,0,.5-.5v-10a.5.5,0,0,0-.5-.5Z" fill="#263238"/>
    <path id="Контур_91" data-name="Контур 91" d="M18.5,57h-1a.5.5,0,0,1,0-1h1a.5.5,0,0,1,0,1" fill="#263238"/>
    <path id="Контур_92" data-name="Контур 92" d="M15.5,57H.5a.5.5,0,0,1,0-1h15a.5.5,0,0,1,0,1" fill="#263238"/>
    <path id="Контур_93" data-name="Контур 93" d="M47.5,5a.5.5,0,0,1-.5-.5V.5a.5.5,0,0,1,1,0v4a.5.5,0,0,1-.5.5" fill="#263238"/>
    <path id="Контур_94" data-name="Контур 94" d="M49.5,3h-4a.5.5,0,0,1,0-1h4a.5.5,0,0,1,0,1" fill="#263238"/>
    <path id="Контур_95" data-name="Контур 95" d="M54.5,12h0a.5.5,0,0,1-.5-.5v-4a.5.5,0,0,1,1,0v4a.5.5,0,0,1-.5.5" fill="#263238"/>
    <path id="Контур_96" data-name="Контур 96" d="M56.5,10h-4a.5.5,0,0,1,0-1h4a.5.5,0,0,1,0,1" fill="#263238"/>
    <path id="Контур_97" data-name="Контур 97" d="M30.5,51a.5.5,0,0,1-.5-.5v-8a.5.5,0,0,1,1,0v8a.5.5,0,0,1-.5.5" fill="#263238"/>
  </g>
</svg>
