<svg xmlns="http://www.w3.org/2000/svg" width="9.916" height="8.814" viewBox="0 0 9.916 8.814">
  <path id="icon-external-link" d="M9.916.413v2.2a.413.413,0,0,1-.705.292L8.6,2.294,4.4,6.486a.413.413,0,0,1-.584,0L3.43,6.1a.413.413,0,0,1,0-.584L7.622,1.32,7.007.705A.413.413,0,0,1,7.3,0H9.5A.413.413,0,0,1,9.916.413ZM7.007,4.662l-.275.275a.413.413,0,0,0-.121.292V7.712H1.1V2.2H5.646a.413.413,0,0,0,.292-.121l.275-.275A.413.413,0,0,0,5.922,1.1H.826A.826.826,0,0,0,0,1.928v6.06a.826.826,0,0,0,.826.826h6.06a.826.826,0,0,0,.826-.826V4.954A.413.413,0,0,0,7.007,4.662Z" fill="#106fc2"/>
</svg>
