<svg xmlns="http://www.w3.org/2000/svg" width="78.214" height="71.834" viewBox="0 0 78.214 71.834">
  <g id="icon-warning" transform="translate(-932.099 -4499.644)">
    <path id="Контур_19" data-name="Контур 19" d="M75.3,67.436H8.8a3.8,3.8,0,0,1-3.247-5.765L38.8,6.828a3.8,3.8,0,0,1,6.493,0L78.544,61.671A3.8,3.8,0,0,1,75.3,67.436" transform="translate(929.157 4496.645)" fill="#ffe500"/>
    <path id="Контур_20" data-name="Контур 20" d="M75.3,67.436H8.8a3.8,3.8,0,0,1-3.247-5.765L38.8,6.828a3.8,3.8,0,0,1,6.493,0L78.544,61.671A3.8,3.8,0,0,1,75.3,67.436Z" transform="translate(929.157 4496.645)" fill="none" stroke="#000" stroke-linecap="round" stroke-miterlimit="10" stroke-width="4"/>
    <path id="Контур_21" data-name="Контур 21" d="M16.331-91.376H9.912V-116.9h6.419Zm.255,9.629H9.657v-6.929h6.929Z" transform="translate(957.433 4638.093)"/>
    <rect id="Прямоугольник_8" data-name="Прямоугольник 8" width="77.108" height="71.337" transform="translate(932.653 4500.141)" fill="none"/>
  </g>
</svg>
