<svg id="icon-task-2" xmlns="http://www.w3.org/2000/svg" xmlns:xlink="http://www.w3.org/1999/xlink" width="68.543" height="47" viewBox="0 0 68.543 47">
  <defs>
    <clipPath id="clip-path">
      <rect id="Прямоугольник_17" data-name="Прямоугольник 17" width="68.543" height="47" fill="none"/>
    </clipPath>
  </defs>
  <g id="Сгруппировать_45" data-name="Сгруппировать 45" clip-path="url(#clip-path)">
    <path id="Контур_98" data-name="Контур 98" d="M54.585,4.6h-34a2.5,2.5,0,0,0-2.5,2.5v13a2.5,2.5,0,0,0,2.5,2.5H37.358l5.133,14.342A2.5,2.5,0,0,0,44.846,38.6H55.715a1,1,0,0,0,.952-1.305L51.965,22.6h2.62a2.5,2.5,0,0,0,2.5-2.5V7.1a2.5,2.5,0,0,0-2.5-2.5" fill="#fed740"/>
    <path id="Контур_99" data-name="Контур 99" d="M54.585,23.1h-.521a.5.5,0,0,1,0-1h.521a2,2,0,0,0,2-2V7.1a2,2,0,0,0-2-2h-34a2,2,0,0,0-2,2v13a2,2,0,0,0,2,2H35.234a.5.5,0,0,1,0,1H20.585a3,3,0,0,1-3-3V7.1a3,3,0,0,1,3-3h34a3,3,0,0,1,3,3v13a3,3,0,0,1-3,3" fill="#263238"/>
    <path id="Контур_100" data-name="Контур 100" d="M16.085,17.1h-4.5a1.5,1.5,0,0,1-1.5-1.5v-4a1.5,1.5,0,0,1,1.5-1.5h4.5a.5.5,0,0,1,0,1h-4.5a.5.5,0,0,0-.5.5v4a.5.5,0,0,0,.5.5h4.5a.5.5,0,0,1,0,1" fill="#263238"/>
    <path id="Контур_101" data-name="Контур 101" d="M60.085,12.1h-1a.5.5,0,1,1,0-1h1a.5.5,0,0,0,.5-.5v-2a.5.5,0,0,0-.5-.5h-1a.5.5,0,1,1,0-1h1a1.5,1.5,0,0,1,1.5,1.5v2a1.5,1.5,0,0,1-1.5,1.5" fill="#263238"/>
    <path id="Контур_102" data-name="Контур 102" d="M53.284,42.1H47.423a2.993,2.993,0,0,1-2.5-1.336l-1.258-1.887a.5.5,0,0,1,.416-.777h12a.5.5,0,0,1,.474.658l-.43,1.291A3,3,0,0,1,53.284,42.1m-8.265-3,.74,1.109a2,2,0,0,0,1.664.891h5.861a2,2,0,0,0,1.9-1.367l.21-.633Z" fill="#263238"/>
    <path id="Контур_103" data-name="Контур 103" d="M55.715,39.1H44.846a3.006,3.006,0,0,1-2.825-1.988L36.408,21.423A2.005,2.005,0,0,0,34.525,20.1H20.085a.5.5,0,0,1,0-1h14.44a3.007,3.007,0,0,1,2.824,1.988l5.613,15.686A2.005,2.005,0,0,0,44.846,38.1H55.715a.5.5,0,0,0,.477-.652l-7.583-23.7a.5.5,0,1,1,.952-.3L57.144,37.14A1.5,1.5,0,0,1,55.715,39.1" fill="#263238"/>
    <path id="Контур_104" data-name="Контур 104" d="M29.085,15.1h-7a1.5,1.5,0,0,1-1.5-1.5v-1a1.5,1.5,0,0,1,1.5-1.5h7a1.5,1.5,0,0,1,1.5,1.5v1a1.5,1.5,0,0,1-1.5,1.5m-7-3a.5.5,0,0,0-.5.5v1a.5.5,0,0,0,.5.5h7a.5.5,0,0,0,.5-.5v-1a.5.5,0,0,0-.5-.5Z" fill="#263238"/>
    <path id="Контур_105" data-name="Контур 105" d="M8.343,15h-5.6a1.166,1.166,0,0,1-1.2-1.125v-.75A1.165,1.165,0,0,1,2.743,12h5.6a1.165,1.165,0,0,1,1.2,1.125v.75A1.166,1.166,0,0,1,8.343,15m-5.6-2.25a.388.388,0,0,0-.4.375v.75a.388.388,0,0,0,.4.375h5.6a.388.388,0,0,0,.4-.375v-.75a.388.388,0,0,0-.4-.375Z" fill="#263238"/>
    <path id="Контур_106" data-name="Контур 106" d="M65.543,47h-30a.5.5,0,0,1,0-1h30a2,2,0,0,0,2-2V42a.5.5,0,0,1,1,0v2a3,3,0,0,1-3,3" fill="#263238"/>
    <path id="Контур_107" data-name="Контур 107" d="M68.543,12V42a.5.5,0,0,1-1,0V12a2,2,0,0,0-2-2h-2a.5.5,0,0,1,0-1h2a3,3,0,0,1,3,3" fill="#263238"/>
    <path id="Контур_108" data-name="Контур 108" d="M38.08,32.1h-4.5a1.5,1.5,0,0,1-1.437-1.931l1.093-3.642V24.6a.5.5,0,0,1,1,0v2a.539.539,0,0,1-.021.144L33.1,30.453a.5.5,0,0,0,.479.644h4.5a.5.5,0,0,1,0,1" fill="#263238"/>
    <path id="Контур_109" data-name="Контур 109" d="M13.085,17.1a.5.5,0,0,1-.5-.5v-6a.5.5,0,0,1,1,0v6a.5.5,0,0,1-.5.5" fill="#263238"/>
    <path id="Контур_110" data-name="Контур 110" d="M42.5,1h1a.5.5,0,0,0,0-1h-1a.5.5,0,0,0,0,1" fill="#263238"/>
    <path id="Контур_111" data-name="Контур 111" d="M45.5,1h10a.5.5,0,0,0,0-1h-10a.5.5,0,0,0,0,1" fill="#263238"/>
    <path id="Контур_112" data-name="Контур 112" d="M13.5,20h-1a.5.5,0,0,0,0,1h1a.5.5,0,0,0,0-1" fill="#263238"/>
    <path id="Контур_113" data-name="Контур 113" d="M10.5,20H.5a.5.5,0,0,0,0,1h10a.5.5,0,0,0,0-1" fill="#263238"/>
  </g>
</svg>
