<svg id="icon-task-4" xmlns="http://www.w3.org/2000/svg" xmlns:xlink="http://www.w3.org/1999/xlink" width="47" height="63.897" viewBox="0 0 47 63.897">
  <defs>
    <clipPath id="clip-path">
      <rect id="Прямоугольник_19" data-name="Прямоугольник 19" width="47" height="63.897" transform="translate(0 0)" fill="none"/>
    </clipPath>
  </defs>
  <g id="Сгруппировать_47" data-name="Сгруппировать 47" clip-path="url(#clip-path)">
    <path id="Прямоугольник_18" data-name="Прямоугольник 18" d="M2.261,0H6.74A2.26,2.26,0,0,1,9,2.26V38.24A2.26,2.26,0,0,1,6.74,40.5H2.261A2.261,2.261,0,0,1,0,38.239V2.261A2.261,2.261,0,0,1,2.261,0Z" transform="translate(19.039 14.403)" fill="none" stroke="#263238" stroke-miterlimit="10" stroke-width="1"/>
    <path id="Контур_114" data-name="Контур 114" d="M35.22.5h-23A2.5,2.5,0,0,0,9.72,3V14.5a5,5,0,0,0,5,5h18a5,5,0,0,0,5-5V3A2.5,2.5,0,0,0,35.22.5" fill="#ff5252"/>
    <path id="Контур_115" data-name="Контур 115" d="M32.72,20h-18a5.506,5.506,0,0,1-5.5-5.5V3a3,3,0,0,1,3-3h23a3,3,0,0,1,3,3V14.5a5.507,5.507,0,0,1-5.5,5.5M12.22,1a2,2,0,0,0-2,2V14.5a4.505,4.505,0,0,0,4.5,4.5h18a4.505,4.505,0,0,0,4.5-4.5V3a2,2,0,0,0-2-2Z" fill="#263238"/>
    <path id="Контур_116" data-name="Контур 116" d="M33.219,17h-3a.5.5,0,0,1,0-1h3a1.5,1.5,0,0,0,1.5-1.5v-3a.5.5,0,0,1,1,0v3a2.5,2.5,0,0,1-2.5,2.5" fill="#263238"/>
    <path id="Контур_117" data-name="Контур 117" d="M37.72,5.5h-28a.5.5,0,0,1,0-1h28a.5.5,0,0,1,0,1" fill="#263238"/>
    <path id="Контур_118" data-name="Контур 118" d="M23.039,63.4h1a2.5,2.5,0,0,0,2.5-2.5v-6h-6v6a2.5,2.5,0,0,0,2.5,2.5" fill="#ffd740"/>
    <path id="Контур_119" data-name="Контур 119" d="M20.539,54.4h6a.5.5,0,0,1,.5.5v6a3,3,0,0,1-3,3h-1a3,3,0,0,1-3-3v-6a.5.5,0,0,1,.5-.5m5.5,1h-5v5.5a2,2,0,0,0,2,2h1a2,2,0,0,0,2-2Z" fill="#263238"/>
    <path id="Контур_120" data-name="Контур 120" d="M20.539,60.4h6a.5.5,0,0,1,0,1h-6a.5.5,0,1,1,0-1" fill="#263238"/>
    <path id="Контур_121" data-name="Контур 121" d="M20.539,56.9h6a.5.5,0,0,1,0,1h-6a.5.5,0,1,1,0-1" fill="#263238"/>
    <path id="Контур_122" data-name="Контур 122" d="M18.054,59.9a.493.493,0,0,1-.191-.038L4,54.124a.5.5,0,0,1,.383-.924l13.858,5.74a.5.5,0,0,1-.191.962" fill="#263238"/>
    <path id="Контур_123" data-name="Контур 123" d="M2.348,53.4a.512.512,0,0,1-.191-.038L.308,52.593a.5.5,0,0,1,.383-.924l1.848.766a.5.5,0,0,1-.191.962" fill="#263238"/>
    <path id="Контур_124" data-name="Контур 124" d="M16,51.129a.5.5,0,0,1-.434-.25l-7.5-12.99a.5.5,0,1,1,.867-.5l7.5,12.99a.5.5,0,0,1-.183.683.494.494,0,0,1-.25.067" fill="#263238"/>
    <path id="Контур_125" data-name="Контур 125" d="M7.5,36.407a.5.5,0,0,1-.434-.25l-1-1.731a.5.5,0,1,1,.866-.5l1,1.731a.5.5,0,0,1-.433.75" fill="#263238"/>
    <path id="Контур_126" data-name="Контур 126" d="M28.946,60.9a.5.5,0,0,1-.191-.962L42.613,54.2a.5.5,0,0,1,.383.924l-13.859,5.74a.5.5,0,0,1-.191.038" fill="#263238"/>
    <path id="Контур_127" data-name="Контур 127" d="M44.652,54.4a.5.5,0,0,1-.191-.962l1.847-.766a.5.5,0,1,1,.383.924l-1.848.766a.512.512,0,0,1-.191.038" fill="#263238"/>
    <path id="Контур_128" data-name="Контур 128" d="M31,52.129a.494.494,0,0,1-.25-.067.5.5,0,0,1-.183-.683l7.5-12.99a.5.5,0,1,1,.866.5l-7.5,12.99a.5.5,0,0,1-.433.25" fill="#263238"/>
    <path id="Контур_129" data-name="Контур 129" d="M39.5,37.407a.5.5,0,0,1-.433-.75l1-1.731a.5.5,0,1,1,.866.5l-1,1.731a.5.5,0,0,1-.433.25" fill="#263238"/>
  </g>
</svg>
