<svg xmlns="http://www.w3.org/2000/svg" width="43.112" height="39.688" viewBox="0 0 43.112 39.688">
  <g id="warning-icon" transform="translate(-932.455 -4499.974)">
    <path id="Контур_19" data-name="Контур 19" d="M43.945,39.589H7.106a2.1,2.1,0,0,1-1.8-3.194L23.727,6.013a2.1,2.1,0,0,1,3.6,0L45.743,36.4a2.1,2.1,0,0,1-1.8,3.194" transform="translate(928.486 4495.974)" fill="#ffe500"/>
    <path id="Контур_20" data-name="Контур 20" d="M43.945,39.589H7.106a2.1,2.1,0,0,1-1.8-3.194L23.727,6.013a2.1,2.1,0,0,1,3.6,0L45.743,36.4A2.1,2.1,0,0,1,43.945,39.589Z" transform="translate(928.486 4495.974)" fill="none" stroke="#000" stroke-linecap="round" stroke-miterlimit="10" stroke-width="2"/>
    <path id="Контур_21" data-name="Контур 21" d="M13.355-102.76H9.8V-116.9h3.556Zm.141,5.335H9.657v-3.839H13.5Z" transform="translate(942.074 4628.704)"/>
    <rect id="Прямоугольник_8" data-name="Прямоугольник 8" width="42.718" height="39.521" transform="translate(932.653 4500.141)" fill="none"/>
  </g>
</svg>
